# Blender 4.0.2
# www.blender.org
o Plane
v -8.835841 -0.498231 8.758131
v 8.529703 0.541178 -9.202777
v -9.100597 0.201330 -9.123124
v 8.663923 -0.341322 5.796679
v -1.284458 0.271429 -8.946440
v 9.059031 -0.188686 -1.998171
v 3.260055 0.034901 -1.528108
v 7.543677 0.378780 9.056879
v -1.940615 0.195316 8.957161
v -8.697712 -0.083478 -1.457729
vn 0.0274 0.9976 -0.0640
vn 0.0434 0.9972 0.0612
vn 0.0143 0.9994 0.0307
vn -0.0221 0.9997 -0.0134
vn -0.0165 0.9751 -0.2211
vn -0.0267 0.9994 0.0199
vn -0.1011 0.9941 0.0390
vn -0.0152 0.9990 0.0412
vn 0.0040 0.9976 0.0686
vn -0.0097 0.9992 0.0377
vt 0.972704 0.165691
vt 0.999672 0.610142
vt 0.669416 0.614653
vt 0.421166 0.011826
vt 0.917984 0.002328
vt 0.022573 0.604381
vt 0.003154 0.013464
vt 0.419356 0.982697
vt 0.935893 0.974366
vt 0.033655 0.987373
s 1
f 4/1/1 6/2/2 7/3/3
f 4/1/1 9/4/4 8/5/5
f 9/4/4 10/6/6 1/7/7
f 5/8/8 7/3/3 2/9/9
f 7/3/3 6/2/2 2/9/9
f 9/4/4 4/1/1 7/3/3
f 5/8/8 3/10/10 7/3/3
f 10/6/6 9/4/4 7/3/3
f 7/3/3 3/10/10 10/6/6
